<svg xmlns="http://www.w3.org/2000/svg" xmlns:xlink="http://www.w3.org/1999/xlink" width="3300" height="2200" version="1.1"><style>.SFSymbolsPreview212121{fill:#212121;opacity:1}.SFSymbolsPreview4D4D4D{fill:#4d4d4d;opacity:1}</style><g id="Notes"><style>text{font-family:-apple-system,sans-serif}.separator{fill:none;stroke:#000;stroke-width:.5}</style><rect id="artboard" width="3300" height="2200" style="fill:#fff"/><g title="header" transform="translate(263 292)"><line x1="0" x2="2773" class="separator"/><g><text style="font-weight:700" transform="translate(0 30)">Weight/Scale Variations</text><g style="text-anchor:middle"><text x="296.711" transform="translate(0 30)">Ultralight</text><text x="593.422" transform="translate(0 30)">Thin</text><text x="890.13" transform="translate(0 30)">Light</text><text x="1186.84" transform="translate(0 30)">Regular</text><text x="1483.56" transform="translate(0 30)">Medium</text><text x="1780.27" transform="translate(0 30)">Semibold</text><text x="2076.98" transform="translate(0 30)">Bold</text><text x="2373.69" transform="translate(0 30)">Heavy</text><text x="2670.4" transform="translate(0 30)">Black</text></g></g></g><g title="footer" transform="translate(263 1903)"><line x1="0" x2="2773" class="separator"/><g transform="translate(2773 0)" style="text-anchor:end"><text id="template-version" y="30">Template v.3.0</text><text y="48">Requires Xcode 13 or greater</text><text y="66">Generated from text.alignleft</text><text y="84">Typeset at 100 points</text></g></g><g><text y="726" transform="translate(263 0)">Small</text><text y="1156" transform="translate(263 0)">Medium</text><text y="1586" transform="translate(263 0)">Large</text></g></g><g id="Guides"><style>#H-reference{fill:#27aae1;stroke:none}[id$=-margin]{fill:none;stroke-width:.5}[id^=Baseline],[id^=Capline]{fill:none;stroke:#27aae1;stroke-width:.5}[id$=-margin]{stroke:#00aeef}</style><g id="H-reference"><path d="M1,0h2.7L13-24.5h32.7L55.1,0h2.6L30.6-70.5h-2.5L1,0z M29.3-67.1L29.3-67.1l15.6,40.4h-31L29.3-67.1z" transform="translate(339 696)"/></g><line id="Baseline-S" x1="263" x2="3036" y1="696" y2="696"/><line id="Capline-S" x1="263" x2="3036" y1="625.5" y2="625.5"/><g id="H-reference"><path d="M1,0h2.7L13-24.5h32.7L55.1,0h2.6L30.6-70.5h-2.5L1,0z M29.3-67.1L29.3-67.1l15.6,40.4h-31L29.3-67.1z" transform="translate(339 1126)"/></g><line id="Baseline-M" x1="263" x2="3036" y1="1126" y2="1126"/><line id="Capline-M" x1="263" x2="3036" y1="1055.5" y2="1055.5"/><g id="H-reference"><path d="M1,0h2.7L13-24.5h32.7L55.1,0h2.6L30.6-70.5h-2.5L1,0z M29.3-67.1L29.3-67.1l15.6,40.4h-31L29.3-67.1z" transform="translate(339 1556)"/></g><line id="Baseline-L" x1="263" x2="3036" y1="1556" y2="1556"/><line id="Capline-L" x1="263" x2="3036" y1="1485.5" y2="1485.5"/><line id="left-margin" x1="1388.2" x2="1388.2" y1="1030.8" y2="1150.1"/><line id="right-margin" x1="1511.5" x2="1511.5" y1="1030.8" y2="1150.1"/></g><g id="Symbols"><g id="Regular-L"><path d="M113.9,14.2H80.4 M117.9,14.2c0-2.2-1.8-4-4-4H80.4c-2.2,0-4,1.8-4,4s1.8,4,4,4h33.5C116.1,18.2,117.9,16.4,117.9,14.2z M89.2-18.9h57.1 M150.4-18.9c0-2.2-1.8-4-4-4H89.2c-2.2,0-4,1.8-4,4s1.8,4,4,4h57.1C148.6-14.9,150.4-16.7,150.4-18.9z M98.1-51.9h48.3 M150.4-51.9c0-2.2-1.8-4-4-4H98.1c-2.2,0-4,1.8-4,4s1.8,4,4,4h48.3C148.6-47.9,150.4-49.7,150.4-51.9z M106.9-84.9h39.4 M150.4-84.9c0-2.2-1.8-4-4-4H107c-2.2,0-4,1.8-4,4s1.8,4,4,4h39.4C148.6-80.9,150.4-82.7,150.4-84.9z" class="hierarchical-0:secondary SFSymbolsPreview4D4D4D" transform="translate(1370.99 1556)"/><path d="M80.8-93.4l-31.1,116 M55.5,24.2L86.6-91.9c0.9-3.2-1-6.5-4.2-7.3c-3.2-0.9-6.5,1-7.3,4.2L43.9,21.1 c-0.9,3.2,1,6.5,4.2,7.3c0.5,0.1,1,0.2,1.6,0.2C52.4,28.7,54.8,26.9,55.5,24.2z M44.9-93.4l-31.1,116 M19.6,24.2L50.7-91.9 c0.9-3.2-1-6.5-4.2-7.3c-3.2-0.9-6.5,1-7.3,4.2L8,21.1c-0.9,3.2,1,6.5,4.2,7.3c0.5,0.1,1,0.2,1.6,0.2 C16.4,28.7,18.8,26.9,19.6,24.2z" class="hierarchical-1:primary SFSymbolsPreview212121" transform="translate(1370.99 1556)"/></g><g id="Regular-M"><path d="M63.1,3h26 M92.7,3c0-2-1.6-3.6-3.6-3.6h-26c-2,0-3.6,1.6-3.6,3.6s1.6,3.6,3.6,3.6h26C91.1,6.6,92.7,4.9,92.7,3z M70-22.6 h44.3 M117.8-22.6c0-2-1.6-3.6-3.6-3.6H70c-2,0-3.6,1.6-3.6,3.6S68-19,70-19h44.3C116.2-19,117.8-20.6,117.8-22.6z M76.8-48.2 h37.4 M117.8-48.2c0-2-1.6-3.6-3.6-3.6H76.8c-2,0-3.6,1.6-3.6,3.6s1.6,3.6,3.6,3.6h37.4C116.2-44.6,117.8-46.2,117.8-48.2z M83.7-73.8h30.6 M117.8-73.8c0-2-1.6-3.6-3.6-3.6H83.7c-2,0-3.6,1.6-3.6,3.6s1.6,3.6,3.6,3.6h30.6 C116.2-70.1,117.8-71.8,117.8-73.8z" class="hierarchical-0:secondary SFSymbolsPreview4D4D4D" transform="translate(1388.2 1126)"/><path d="M39.3,9.6l24.1-90 M44.6,11l24.1-90c0.8-2.9-0.9-5.8-3.8-6.6c-2.9-0.8-5.8,0.9-6.6,3.8l-24.1,90c-0.8,2.9,0.9,5.8,3.8,6.6 c0.5,0.1,0.9,0.2,1.4,0.2C41.7,15,43.9,13.4,44.6,11z M35.6-80.4l-24.1,90 M16.7,11l24.1-90c0.8-2.9-0.9-5.8-3.8-6.6 c-2.9-0.8-5.8,0.9-6.6,3.8L6.2,8.2C5.4,11.1,7.1,14,10,14.8c0.5,0.1,0.9,0.2,1.4,0.2C13.8,15,16,13.4,16.7,11z" class="hierarchical-1:primary SFSymbolsPreview212121" transform="translate(1388.2 1126)"/></g><g id="Regular-S"><path d="M50.1-5.3h20.2 M73.6-5.3c0-1.8-1.5-3.3-3.3-3.3H50.1c-1.8,0-3.3,1.5-3.3,3.3S48.3-2,50.1-2h20.2 C72.1-2,73.6-3.5,73.6-5.3z M55.5-25.3h34.4 M93.2-25.3c0-1.8-1.5-3.3-3.3-3.3H55.5c-1.8,0-3.3,1.5-3.3,3.3s1.5,3.3,3.3,3.3h34.4 C91.7-22,93.2-23.5,93.2-25.3z M89.9-45.2H60.8 M93.2-45.2c0-1.8-1.5-3.3-3.3-3.3H60.8c-1.8,0-3.3,1.5-3.3,3.3s1.5,3.3,3.3,3.3 h29.1C91.7-41.9,93.2-43.4,93.2-45.2z M66.1-65.4h23.8 M93.2-65.4c0-1.8-1.5-3.3-3.3-3.3H66.1c-1.8,0-3.3,1.5-3.3,3.3 s1.5,3.3,3.3,3.3h23.8C91.7-62.1,93.2-63.6,93.2-65.4z" class="hierarchical-0:secondary SFSymbolsPreview4D4D4D" transform="translate(1401.14 696)"/><path d="M50.4-70.2l-18.8,70 M36.4,1.1l18.8-70c0.7-2.6-0.9-5.4-3.5-6.1s-5.4,0.9-6.1,3.5l-18.8,70c-0.7,2.6,0.9,5.4,3.5,6.1 c0.4,0.1,0.9,0.2,1.3,0.2C33.8,4.7,35.8,3.3,36.4,1.1z M28.7-70.2L9.9-0.2 M14.7,1.1l18.8-70c0.7-2.6-0.9-5.4-3.5-6.1 s-5.4,0.9-6.1,3.5L5.2-1.5C4.4,1.1,6,3.8,8.7,4.6C9.1,4.7,9.6,4.8,10,4.8C12.1,4.7,14.1,3.3,14.7,1.1z" class="hierarchical-1:primary SFSymbolsPreview212121" transform="translate(1401.14 696)"/></g></g></svg>